<?xml version="1.0" encoding="iso-8859-1"?>
<!-- Uploaded to: SVG Repo, www.svgrepo.com, Generator: SVG Repo Mixer Tools -->
<svg version="1.1" id="Layer_1" xmlns="http://www.w3.org/2000/svg" xmlns:xlink="http://www.w3.org/1999/xlink" 
	 viewBox="0 0 294.827 294.827" xml:space="preserve">
<g>
	<g>
		<path style="fill:#333333;" d="M196.8,114.396l-15.43,15.43l6.626,6.626l15.43-15.43l28.114,28.114l62.854-62.854L208.112,0
			l-62.854,62.854l28.114,28.114l-15.43,15.43l6.626,6.626l15.43-15.43L196.8,114.396z M208.112,13.251l7.431,7.431l-10.744,10.744
			l6.626,6.626l10.744-10.744l7.431,7.431l-10.744,10.744l6.626,6.626l10.744-10.744l16.803,16.803l-10.744,10.744l6.626,6.626
			l10.744-10.744l7.431,7.431l-10.744,10.744l6.626,6.626l10.744-10.744l7.431,7.431l-49.602,49.602l-7.431-7.431l10.744-10.744
			l-6.626-6.626l-10.744,10.744l-7.431-7.431l10.744-10.744l-6.626-6.626l-10.744,10.744l-16.803-16.803l10.744-10.744l-6.626-6.626
			l-10.744,10.744l-7.431-7.431l10.744-10.744l-6.626-6.626l-10.744,10.744l-7.431-7.431L208.112,13.251z"/>
		<polygon style="fill:#333333;" points="51.545,86.282 87.657,122.394 94.283,115.769 64.796,86.282 86.284,64.793 115.771,94.28 
			122.397,87.655 86.284,51.542 72.227,65.599 56.798,50.169 50.172,56.795 65.602,72.225 		"/>
		<path style="fill:#333333;" d="M294.824,198.307l-4.175-3.261c-11.157-8.72-30.105-15.05-45.057-15.05
			c-10.337,0-20.087,2.469-28.798,6.747l-14.746-14.746l-6.626,6.626l12.989,12.989c-6.537,4.517-12.211,10.187-16.742,16.718
			l-12.979-12.98l-6.626,6.626l14.722,14.722c-4.311,8.734-6.794,18.518-6.794,28.897c0,14.952,6.33,33.901,15.05,45.057
			l3.261,4.175l44.945-44.945l27.144,27.144l6.626-6.626l-27.144-27.144L294.824,198.307z M189.369,245.595
			c0-31.005,25.223-56.228,56.228-56.228c11.063,0,25.096,4.152,34.871,10.046l-81.053,81.053
			C193.52,270.691,189.369,256.658,189.369,245.595z"/>
		<path style="fill:#333333;" d="M136.454,187.994l-6.626-6.626l-15.43,15.43l-16.803-16.803l15.43-15.43l-6.626-6.626l-15.43,15.43
			l-28.114-28.114L0.003,208.109l86.282,86.282l62.854-62.854l-28.114-28.114L136.454,187.994z M86.284,281.14l-7.431-7.431
			l10.744-10.744l-6.626-6.626l-10.744,10.744l-7.431-7.431l10.744-10.744l-6.626-6.626L58.17,253.026l-16.803-16.803l10.744-10.744
			l-6.626-6.626l-10.744,10.744l-7.431-7.431l10.744-10.744l-6.626-6.626L20.684,215.54l-7.431-7.431l49.602-49.602l7.431,7.431
			l-10.744,10.744l6.626,6.626l10.744-10.744l7.431,7.431L73.6,190.74l6.626,6.626l10.744-10.744l16.803,16.803l-10.744,10.744
			l6.626,6.626l10.744-10.744l7.431,7.431l-10.744,10.744l6.626,6.626l10.744-10.744l7.431,7.431L86.284,281.14z"/>
		
			<rect x="107.453" y="87.555" transform="matrix(0.7071 -0.7071 0.7071 0.7071 -60.9634 147.2072)" style="fill:#F9BA48;" width="79.519" height="119.276"/>
		
			<rect x="142.525" y="155.427" transform="matrix(0.7071 -0.7071 0.7071 0.7071 -80.8428 155.4396)" style="fill:#333333;" width="9.371" height="39.758"/>
		
			<rect x="119.098" y="145.254" transform="matrix(0.7071 -0.7071 0.7071 0.7071 -71.1397 132.0124)" style="fill:#333333;" width="9.371" height="13.251"/>
	</g>
</g>
</svg>